<svg xmlns="http://www.w3.org/2000/svg" width="460.649" height="273.483" viewBox="0 0 460.649 273.483">
  <g id="Layer_2" data-name="Layer 2" opacity="0.06">
    <g id="Layer_1" data-name="Layer 1">
      <path id="Path_46" data-name="Path 46" d="M686.858,97.148c-.516.526-1.356.987-1.48,1.6-.3,1.513-1.116,1.785-2.306,1.227a32.709,32.709,0,0,1-4.15-2.343c-2.739-1.845-3.827-1.383-4.547,1.692-.272,1.171-1.227,2.177-1.784,3.3-1.974,4-5.866,4.98-9.615,6.253a4.536,4.536,0,0,0-3.191,5.017c.055,1,.106,1.992.244,2.979a3.478,3.478,0,0,1-2.066,4.123,5.474,5.474,0,0,0-1.738,2.015c-.793,1.19-1.494,2.444-2.453,4.035-4.252-7.065-2.693-13.041,1.72-18.215l-3.809-5.073a7.24,7.24,0,0,0-2.841,5.119c-.161,1.176-.535,2.223-2.024,1.748-4.058-1.291-8.231-.309-12.294-.7-4.5-.429-6.769,1.494-8.54,5.206-2.223,4.657-2.366,4.653,2.73,5.073a3.05,3.05,0,0,1,3.228,3.076c.719,5.769-1.213,10.482-4.86,14.922-2.1,2.559-4.15,4.436-7.512,4.971-1.531.244-2.831,4.482-2.338,5.995.747,2.306,1.25,4.653,1.918,7.208l-3.869.761c-1.074-2.412-1.845-4.907-3.228-6.986a9.329,9.329,0,0,0-4.326-3.385c-.895-.318-2.444.922-3.564,1.679a1.744,1.744,0,0,0,0,1.72c1.328,1.162,1.425,2.513,1.277,4.15-.092,1.024.461,2.094.549,3.154.245,3.883.5,7.775.567,11.667.06,3.777-2.688,6.221-4.727,8.951-.318.429-1.2.493-1.845.618-1.107.217-2.255.277-3.352.54a2.333,2.333,0,0,0-2.006,2.587,3.024,3.024,0,0,1-1.683,2.375c-1.48.24-1.462-1.162-1.383-2.273.088-1.314-.669-2.038-1.789-1.655-.789.272-1.96,1.416-1.845,1.941a38.256,38.256,0,0,0,1.937,5.594,2.9,2.9,0,0,0,.392.567c3.735,5.566,2.974,6.456-1.383,9.961-.83.669-1.775,1.19-2.684,1.789-1.632-4.694-3.578-6.857-6.613-7.148.065,4.017-.544,7.872,3.08,11.21,1.508,1.383,1.383,4.574,2.094,7.314-4.2-1.383-5.1-2.513-5.257-5.824-.032-.664-.078-1.6-.5-1.928-2.227-1.771-1.891-4.215-2.186-6.617a55.79,55.79,0,0,0-1.918-7.775,2.305,2.305,0,0,0-.922-1.282c-3.228-1.988-4.3-4.916-4.215-8.559.055-2.333-.655-2.744-3.043-2.278a9.116,9.116,0,0,1-2.25.406c-1.711-.134-2.808.208-2.831,2.232,0,.484-.646.978-1.038,1.43-1.254,1.448-2.522,2.873-3.786,4.307-.4.461-.715,1.181-1.213,1.351-2.97,1.005-2.767,3.477-2.877,5.847a17.116,17.116,0,0,1-.521,4.773,5.1,5.1,0,0,1-2.592,2.767c-3,1.116-3.814.166-4.058-3.053-.378-4.98-1.227-9.9-4.1-14.189-.254-.378-.5-.922-.872-1.038-3.92-1.383-4.787-5-6.221-8.259a3.09,3.09,0,0,0-2.2-1.36c-2.2-.272-4.445-.184-6.659-.4-1.319-.129-2.961.244-3.468-1.8-.1-.378-1.323-.618-2.047-.673-3.256-.267-5.833-1.351-7.452-4.528-.461-.885-2.306-1.047-3.523-1.545l-.609.752c1.351,2.905,2.384,5.995,4.15,8.646,1.54,2.306,3.371,1.766,5.995-1.268.922.922,1.845,1.822,2.67,2.818,1.194,1.466,1.513,2.942-.041,4.487a2.767,2.767,0,0,0-.692,2c.332,2.841-1.13,4.551-3.458,5.626-2.43,1.125-4.976,1.992-7.429,3.067-1.485.65-2.887,1.48-4.879,2.518-1.273-.184-2.384-1.273-2.642-3.339a8.075,8.075,0,0,0-.922-2.306c-1.2-2.721-2.379-5.451-3.652-8.139-.461-.987-.922-2.306-1.789-2.707-1.559-.761-1.711-1.868-1.914-3.311a21.147,21.147,0,0,0-1.383-5.423c-.258-.595-1.646-.7-2.522-1.024a7.4,7.4,0,0,0-.138,2.522c1.752,5.612,3.32,11.312,5.561,16.725,1.25,3.016,3.32,5.741,4.939,8.642s5.326,2.767,8.582,2.218a11.753,11.753,0,0,1,2.744.161,15.416,15.416,0,0,1-.692,2.767c-.807,1.794-1.845,3.486-2.647,5.289a18.651,18.651,0,0,1-7.987,9.223c-4.012,2.241-5.34,4.86-4.547,9.472q.692,3.9,1.734,7.733c1.157,4.279-.659,9.85-4.432,12.091-3.094,1.845-4.349,4.053-4.27,7.816.055,2.67-1.637,5.386-2.605,8.065-.461,1.217-1.139,2.347-1.5,3.578-1.891,6.484-6.281,10.09-13.027,10.643-1.061.088-2.107.35-3.537.6-.789-2.859-1.18-5.995-2.527-8.66s-2.818-5.169-3.357-8.171c-.881-4.9-2.306-9.739-2.794-14.669a86.783,86.783,0,0,1,0-13.977c.231-3.961-2.306-6.691-3.823-9.836-1-2.094-1.7-3.6-.378-5.9.779-1.351.526-3.408.383-5.114-.037-.461-1.3-1.111-2.052-1.2-1.273-.152-2.269,0-3.228-1.448-1.2-1.821-3.357-.978-5.072-.4-4.067,1.383-8.148,2.767-12.377.876-3.6-1.628-7.314-3.228-8.568-7.6a5.482,5.482,0,0,0-1.6-2.186,9.568,9.568,0,0,1-2.767-8.609c.4-3.32,1.748-6.521.378-9.951-.217-.54.95-1.674,1.549-2.476a27.566,27.566,0,0,0,2.462-3.14c.719-1.347,1.051-2.873,2.873-3.283a1.5,1.5,0,0,0,.872-1.181c-.327-2.066.973-3.265,2.167-4.565.309-.332.719-.761.719-1.153.028-3.26,2-3.878,4.667-3.352.461-3.09,1.766-4.123,4.676-4.611a37.975,37.975,0,0,0,5.6-1.706c.429-.138.812-.526,1.236-.567,3.8-.374,7.609-.7,12.017-1.084-.526,1.757-.807,3.113-1.333,4.367-.812,1.941-.369,2.306,1.6,2.947a42.559,42.559,0,0,1,6.917,3.293,25.693,25.693,0,0,1,2.107,1.762c1.051.715,1.817.65,2.052-.881.539-3.449.922-3.8,4.256-2.361a24.754,24.754,0,0,0,12.815,1.845,4.141,4.141,0,0,0,3.924-2.974,33.73,33.73,0,0,0,1.323-4.611c.369-2.1-.567-2.878-2.7-2.661a46.784,46.784,0,0,1-5.5.332c-2.361-.037-3.343-1.162-3.689-3.528a6.852,6.852,0,0,0-1.125-2.905c-.406-.563-1.347-.747-2.052-1.1-.309.733-.964,1.522-.867,2.2.327,2.236-.779,3.426-2.841,4.533-.8-2.306-1.72-4.482-2.264-6.723-.461-1.932-1.411-2.937-3.4-3.057-2.223-.134-4.063-.719-4.238-3.509-.032-.512-1.121-.955-1.969-1.171,0,2.707,1.642,4.2,3.689,5.28,1.6.853,1.8,2.209,1.637,3.689-.175,1.568-.309,3.269-1.891,3.44a38.5,38.5,0,0,0-1.969-5.358c-.461-.922-1.642-1.476-2.559-2.1-.424-.286-1.277-.189-1.471-.53-2.149-3.735-5.644-1.383-8.49-1.909a2.278,2.278,0,0,0-1.808.641c-1.563,1.845-2.961,3.841-4.478,5.732-1.411,1.752-2.767,3.486-2.582,5.949.023.281-.378.595-.742,1.125-1.568-1.928-3.375-2-4.989-.922l-3.874-2.02c.212-1.471.461-3.117.673-4.773a4.938,4.938,0,0,0,.078-2.25c-.839-2.057-.055-2.675,1.914-2.587a13.707,13.707,0,0,0,2.306-.134c3.74-.461,4.15-1.014,4.279-4.773.06-1.549.041-2.79-1.158-4.081s-.212-2.472,1.48-2.688a5.072,5.072,0,0,0,2.767-1.194,77.3,77.3,0,0,0,5.575-6.082,3.561,3.561,0,0,1,3.689-1.254c1.983.3,2.864-.623,2.827-2.578a21.832,21.832,0,0,1,.424-5.308c.558.724,1.1,1.453,1.665,2.172,3.283,4.183,10.357,4.478,14.3.922,1.8-1.619,4.035-2.688,4.8-5.262.1-.327.992-.558,1.536-.6,2.555-.212,4.275-2.536,3.749-5.488l-8.817,1.213c-1.439-1.236-1.383-4.081.623-6.853a13.138,13.138,0,0,0,2.034-3.3c.231-.692-.4-1.665-.65-2.509A8.225,8.225,0,0,0,474.762,92a40.494,40.494,0,0,0-4.118,4.653,14.664,14.664,0,0,0-2.942,8.785,18.837,18.837,0,0,1-1.061,5.8,3.044,3.044,0,0,1-2.241,1.383c-.374.055-.922-1.148-1.42-1.738a38.169,38.169,0,0,0-4.238-4.611c-.387-.323-1.845.632-2.822,1.019-.807.327-1.845,1.167-2.343.922a2.91,2.91,0,0,1-1.24-2.306,32.853,32.853,0,0,1,1.015-6.53A5.72,5.72,0,0,1,455.316,97c2.112-1.845,4.367-3.565,6.414-5.488.7-.65.922-1.8,1.407-2.688a29.28,29.28,0,0,1,1.554-2.518c.567-.816,1.549-1.485,1.771-2.366.978-3.846,4.03-4.316,7.185-4.75,2.2-.3,4.385-.669,6.59-.885a2.989,2.989,0,0,1,2.153.438c2.868,3.062,7.226,3.472,10.408,5.995.978.77,2.578.835,2.213,2.675s-1.669,2.421-3.385,2.393h-2.177c.572,1.757.779,3.509,1.7,4.694.4.507,2.306-.157,3.048-.24.217-1.084.143-1.817.461-2.19,1.937-2.167,3.956-4.275,5.995-6.354.327-.332,1.093-.715,1.319-.567A2.545,2.545,0,0,1,502.9,86.6c.627,2.628,1.568,3.136,3.947,1.845,1.273-.692,2.338-1.845,3.689-2.347a9.475,9.475,0,0,1,4.731-.835c4.441.793,5.211.355,5.073-3.86,3.878-1.019,5.861,2.1,8.351,4.113l.636-.231a12.812,12.812,0,0,0-.184-3.053c-.991-3.228,1.614-9.435,4.92-11.04-.171,6.456,4.072,12.571.2,19.46,2.818-.461,3.777-1.762,4.33-3.5.3-.922.507-1.845.844-3.117-3.56-1.305-1.987-5.7-3.837-8.471-.3-.461.968-1.923,1.817-3.491,1.1,3.159,2.651,4.464,5.289,3.057a2.757,2.757,0,0,0,1.411-1.582c.244-1.66.733-2.472,2.633-2,1.462.36,2.518-.111,3.6-1.572.816-1.107,2.91-1.434,4.5-1.771a78.207,78.207,0,0,1,8-1.314c1.808-.189,2.864-.793,2.822-2.8-.023-1.2-.065-2.633,1.743-2.67,1.623-.037,3.385-.152,3.758,2.052a2.128,2.128,0,0,0,2.661,2.047,16.6,16.6,0,0,1,3.435.24c3.569.429,4.118,1.277,3.228,4.856-.111.461-.235.872-.461,1.7,2.845.461,5.607.885,8.356,1.383a4.228,4.228,0,0,1,2.043.692c3.02,2.767,5.234,2.573,7.752-.733a1.719,1.719,0,0,1,.632-.586c1.241-.461,5.7,1.287,6.391,2.444.922,1.559,1.9,3.1,2.878,4.694,2.606-2.91,3.011-2.868,9.712.9a7.813,7.813,0,0,0-.95-5.884c-.885-1.646-1.766-3.638-4.219-3.772a1.734,1.734,0,0,1-1.2-1.157c-.055-.378.553-1.084,1.014-1.268,3.094-1.236,6.271-2.089,9.633-1.222,3.542.922,4.007,2.038,2.186,5.188l-4.611-2.149c.526,1.9.825,3.228,1.291,4.505a2.255,2.255,0,0,0,1.13,1.134,90.95,90.95,0,0,0,9.393,3.938,47.313,47.313,0,0,0,9.338,1.845,3.444,3.444,0,0,1,3.228,1.96c1.877,3.606,2.269,3.878,6.207,2.767a5.526,5.526,0,0,1,5.165.77c1.628,1.148,3.274,1.181,4.459-.53,1.586-2.306,3.666-2.37,5.884-1.462,1.466.6,2.675,1.845,4.15,2.389,3.864,1.383,7.346,3.749,11.7,3.966,1.513.078,2.947,1.886,4.4,2.914a7.974,7.974,0,0,1,.867.729Z" transform="translate(-226.213 -33.114)" fill="#fff"/>
      <path id="Path_47" data-name="Path 47" d="M4.611,100.8c1.5-1.314,2.306-2.43,1.549-4.321-.138-.35.53-1.291,1.038-1.563a17.384,17.384,0,0,1,4.215-1.752c2.974-.678,3.08-.706,2.513-4.076H7.932c.037-2.066.959-3.076,2.85-3.2a6.124,6.124,0,0,0,1.845-.046c.821-.369,1.914-.876,2.154-1.582a2.778,2.778,0,0,0-.922-2.4c-1.476-1.383-1.609-2.075.069-2.877,4.505-2.149,8.877-4.764,14.162-4.51a13.223,13.223,0,0,1,1.6,0c7.839,1.383,15.679,2.67,23.426,4.335,2.37.5,4.113.226,5.773-1.328,1.457-1.383,2.979-2.126,4.911-.922.3.194.853.383,1.093.244,2.532-1.489,4.459-.535,6.188,1.411a.858.858,0,0,0,.636.231,22.988,22.988,0,0,0,3.652-.572,2.186,2.186,0,0,0,.051-1.785,7.014,7.014,0,0,0-2.891-1.78c-1.494-.378-3.786.369-4.113-1.545-.231-1.337.789-3.269,1.845-4.353A14.867,14.867,0,0,1,75.4,65.178c.779-.309,2.1.613,3.113,1.116a38.648,38.648,0,0,0,3.417,1.928c1.771.655,3.661.987,5.483,1.522,2.37.7,4.04.346,3.957-2.933l.706.281c.092.678.143,1.383.291,2.029a24.746,24.746,0,0,0,1.171,4.74,3.289,3.289,0,0,1-.318,3.786c-.646.885-1.227,2.444-.867,3.283.521,1.217,3.293,1.019,4.556,0a3.515,3.515,0,0,0,.5-.461A27.376,27.376,0,0,1,100.74,76.4a26.418,26.418,0,0,1,4.611-2.615c1.443,1.568,3.92,2.9,1.789,6.3,1.508-.383,2.453-.558,3.352-.858,1.845-.623,2.905.221,2.767,2.107-.41,5.073-3.408,8.005-7.885,9.744-4.565,1.771-7.733,6.765-6.839,10.97a6.39,6.39,0,0,0,1.116,1.771c.3.461.835.922.83,1.383,0,2.186,1.305,2.818,3.122,2.767,1.6-.028,2.9-.023,3.5,1.992.18.609,1.868,1.024,2.887,1.074,2.6.129,2.979.424,2.73,2.924-.3,2.974,2.144,3.491,4.224,4.8.272-1.586.563-2.905.715-4.238.258-2.269-.115-4.676,2.135-6.35a3.161,3.161,0,0,0,.678-2.306c-.078-3.154-.327-6.3-.415-9.453,0-.4.544-1.176.816-1.167,1.923.083,4.072-.152,5.709.632,2.283,1.093,4.187,2.988,6.253,4.538-.161,1.342-.355,2.933-.544,4.524l.816.429,4.459-4.441a25.11,25.11,0,0,0,11.685,15.494c-.678.341-1.383.65-2.024,1.033-2.827,1.651-5.649,3.3-8.457,4.99-3.122,1.877-4.943,4.551-4.611,8.3.12,1.443-.424,1.978-1.715,2.094-.839.078-1.674.2-2.513.281-1.9.189-2.767,1.231-2.449,3.117.286,1.775-.267,2.642-2.209,2.845a5.394,5.394,0,0,0-5.169,4.98A15.937,15.937,0,0,1,114,154.523a6.729,6.729,0,0,0-1.974,4.561c-.125,2.937.387,5.9.378,8.978-1.845-1.914-4.372-3.136-4.727-6.262-.092-.812-1.254-1.619-2.089-2.19a12.492,12.492,0,0,0-2.366-.784c-1.134-.461-1.914-.341-2.255,1-.461,1.872-1.494,1.522-2.721.669a5.188,5.188,0,0,0-7.955,3.357,27.576,27.576,0,0,0,.032,12.981c.747,2.767,3.514,3.961,5.824,2.213a40.742,40.742,0,0,0,4.026-4.016c3.067.088,3.3.636,2.084,3.8a12.481,12.481,0,0,0-.461,4.93c.023.424,1.489,1.287,1.9,1.1,2.2-1.038,2.767.387,3.163,1.941a29.444,29.444,0,0,1,.682,4.538c.3,3.661.378,3.86,3.98,4.422a34.872,34.872,0,0,0,4.588.028c-1.176.678-1.771,1.038-2.384,1.383s-1.162.59-1.845.922c-3.486-1.665-6.954-3.551-9.075-7.208a6.93,6.93,0,0,0-2.029-1.845c-1.72-1.194-3.463-2.361-5.262-3.431a4.182,4.182,0,0,0-2.264-.687c-6.7.5-14.59-4.7-16.214-11.118a25.465,25.465,0,0,0-4.524-8.937c-1.1-1.5-1.743-3.329-2.767-4.9a5.9,5.9,0,0,0-2.269-1.72c1.287,4.676,4.542,8.508,5.46,13.239l-.673.567c-.715-.586-1.715-1.028-2.1-1.78-2-3.947-3.777-8.015-5.792-11.957a13.433,13.433,0,0,0-2.864-3.791c-5.732-5.174-8.734-16.509-5.866-23.693,1.715-4.293,1.282-7.839-2.974-10.528a4.83,4.83,0,0,1-2.19-4.538c.041-1.822-.733-2.822-2.366-3.961-1.955-1.383-3.094-3.869-4.671-5.81a26.964,26.964,0,0,0-2.6-2.582c-.267-.249-.77-.3-.964-.576-3.3-4.787-7.784-3.569-12.133-2.25-2.767.844-2.721,1.056-4.289-1.531-.747.291-1.762.4-2.223.955s-.876,1.992-.54,2.384c1.748,2.029.779,3.837-.2,6.207l-2.112-2.914c-.032,0-.24-.065-.323,0-1.955,1.706-4.4,2.573-6.544,3.8-2.55,1.457-4.261,4.044-7.775,2.873-.461-.161-1.217.632-1.877.733a6.206,6.206,0,0,1-1.845-.249L0,112.14c2.767-.982,5.566-1.955,8.342-2.951,2.117-.761,4.04-1.679,5.151-3.9.922-1.9.775-2.467-1.351-2.873C9.619,101.953,7.12,101.34,4.611,100.8Z" transform="translate(0 -35.111)" fill="#fff"/>
      <path id="Path_48" data-name="Path 48" d="M261.649,439.986c-.881,1.208-2.435,2.37-2.37,3.431a91.9,91.9,0,0,0,1.637,10.316c.06.327.383.6.581.922l-.208.682a7.707,7.707,0,0,1-2.407-.484c-2.389-1.383-4.671-2.928-7.032-4.349-1.554-.922-1.978-2.14-1.918-4,.277-8.817.309-17.639.516-26.456a20.171,20.171,0,0,1,.876-3.463,45,45,0,0,0,1.167-6.267c.461-7.2.784-14.4,1.125-21.6a5.5,5.5,0,0,0-3.5-5.612,10.8,10.8,0,0,1-6.295-9.721,9.013,9.013,0,0,0-1.217-4.953c-4.491-5.995-3.228-8.3.991-15.153,1.577-2.559,3.14-4.828,1.462-7.973-.3-.567.221-1.946.793-2.532a59.911,59.911,0,0,1,4.994-4.413c1.646-1.383,3.8-1.1,5.63.138a7.269,7.269,0,0,0,4.1,1.457,10.023,10.023,0,0,1,10.187,6.686c.955,2.974,1.134,3.071,4.035,2.177,2.486-.766,6.073,1.872,6.4,4.708.461,4.017,2.532,5.487,6.511,4.805a5.5,5.5,0,0,1,2.629.4c4.436,1.632,7.733,4.9,11.15,7.973,1.6,1.434,1.9,4.279.922,6.414-.715,1.591-1.31,3.228-2.034,4.819-.277.6-.659,1.448-1.171,1.609-3.329,1.033-3.182,4-3.717,6.516-.59,2.767-.53,5.713-2.988,7.729-.461.387-.955,1.079-1.439,1.084-2.961.037-3.91,2.942-6.046,4.15-.461.254-.678,1.333-.632,2a9.116,9.116,0,0,1-4.565,9.126,4.109,4.109,0,0,0-1.383,1.748c-1.54,3.325-2.818,3.86-6.3,2.5l-.922-.374a3.4,3.4,0,0,0,1.254,4.072c1.49,1.051,1.3,2.4.115,3.228a18.787,18.787,0,0,1-5.755,2.555,19.1,19.1,0,0,0-2.462,3.154,88.831,88.831,0,0,0-4.289,9.891C259.8,437.657,261.1,438.962,261.649,439.986Z" transform="translate(-129.211 -181.854)" fill="#fff"/>
      <path id="Path_49" data-name="Path 49" d="M841.96,436.48a47.5,47.5,0,0,1,3.163,5.169,11.109,11.109,0,0,1,.922,4.183,4.617,4.617,0,0,0,2.665,4.441,8.394,8.394,0,0,1,4.639,6.4,13.665,13.665,0,0,0,.992,2.808,14.368,14.368,0,0,1,.6,9.573c-.89,3.625-3.15,6.138-4.934,9.084-1.033,1.7-1.287,3.855-3.389,4.888-.95.461-8.176.65-8.951-.092a2.366,2.366,0,0,1-.646-.922,7.81,7.81,0,0,0-5.465-5.381c-.461-.161-.761-1.061-.982-1.669-.138-.392.143-.922,0-1.319-.5-1.462-6.1-3.357-7.443-2.569a4.152,4.152,0,0,1-.978.6c-4.561,1.093-9.089,2.495-13.719,3.122-3.864.526-5.764-2.13-4.948-5.926a10.293,10.293,0,0,0,.268-2.048c.028-3.957.106-7.922,0-11.874a2.976,2.976,0,0,1,2.366-3.371c3.228-1.033,6.714-1.526,8.988-4.441,1.074-1.383,1.992-2.873,3.159-4.15.835-.922,1.42-3.122,3.412-.816.6.692,2.619.374,3.911.12.378-.074.659-1.522.678-2.343.037-2.038.775-3.228,2.988-3.131.991.051,2,0,2.984.129,2.14.281,2.628,1.24,1.485,3.025s-.424,3.228.816,4.289a13.4,13.4,0,0,0,4.242,2.2c.392.138,1.559-.7,1.679-1.241.341-1.545.24-3.186.461-4.763A39.754,39.754,0,0,1,841.96,436.48Z" transform="translate(-432.871 -235.225)" fill="#fff"/>
      <path id="Path_50" data-name="Path 50" d="M331.54,7.865c1.877,1.282,2.822.872,3.071-1.2.231-1.9,1.522-1.923,2.882-1.323A16.091,16.091,0,0,1,339.96,7.15c.461-1.383.978-2.6,1.287-3.837.341-1.383.729-2.361,2.527-2.25A9.974,9.974,0,0,0,347.329.3c2.02-.673,3.592,0,3.938,2.186a37.141,37.141,0,0,1,.051,5.488l6.825-3.8c1.323,2.767,1.171,4.229-.53,6.723a7.35,7.35,0,0,1,.461,6.972c-.115.277-.337.655-.24.862,1.236,2.624-.489,5.363.369,8,.42,1.3-.461,2.1-.955,3.182A31.463,31.463,0,0,0,355,37.973c-.387,2.333-.124,4.791-2.273,6.456a4.32,4.32,0,0,1-1.093.825c-1.254.41-3.228.318-3.689,1.134-2.744,4.657-7.074,8.494-7.692,14.323a31.661,31.661,0,0,1-1.157,4.505c-4.247-3.532-5.921-7.6-4.879-12.663.046-.226.194-.461.148-.669-.982-4.224.7-8.688-1.153-12.829a3.257,3.257,0,0,1-.231-.885c-.383-3.274-.821-6.539-1.107-9.822-.166-1.9-1.425-2.015-2.767-1.808-2.172.346-3.864.281-3.786-2.605,0-.355-.609-.682-.738-1.088-.36-1.139-1.148-2.522-.789-3.426.493-1.25,1.079-3.163,3.412-2.582.4.1,1.711-1.31,1.637-1.9-.309-2.472,0-4.538,2.2-6.041C331.217,8.76,331.286,8.386,331.54,7.865Z" transform="translate(-174.43 -0.048)" fill="#fff"/>
      <path id="Path_51" data-name="Path 51" d="M262.642,60.764a32.522,32.522,0,0,1,1.8,4.086c.309,1.107,1.093,2.541-1.038,3.09-.383.1-.4,1.591-.59,2.453-2.827-1.655-5.658-3.357-8.54-4.976a5.81,5.81,0,0,0-2.061-.53c-1.434-.189-2.984-.161-2.988-2.416a8.753,8.753,0,0,1,2.416-.5,3.606,3.606,0,0,0,3.689-3.09,6.076,6.076,0,0,0-1.545-4.777,10.3,10.3,0,0,0-9.02-3.044c-1.305.175-3.085.12-3.97-.627a8.269,8.269,0,0,1-2.827-4.464c-.272-1.628,1.383-2.652,3.085-3.177a9.845,9.845,0,0,0,2.4-1.642L243.2,40.6a19.049,19.049,0,0,1-2.868-.221c-1.144-.258-2.582-.378-1.743-2.352.184-.461-.54-1.443-1.061-1.974a40.783,40.783,0,0,0-3.228-2.67c3.454-1.9,4.611,2.628,7.655,1.923a6.633,6.633,0,0,0-1.18-1.729c-1.679-1.277-1.54-2.661-.535-4.21.862-1.3,2.011-2.444.973-4.3-.29-.521.314-1.632.664-2.4.493-1.084,1.13-2.094,1.766-3.228,1.891.267,3.085,6.124,5.617.747,3.145,2.656,3.92,2.5,7.909.461a37.961,37.961,0,0,1,9.121-3.417c1.715-.369,3.744.646,5.594,1.171.111.032.134,1.6-.231,1.845a13.332,13.332,0,0,1-4.33,2.439c-4.15,1.015-6.405,3.878-8.665,7.24-1.877,2.79-4.805,4.86-7.143,7.378a9.664,9.664,0,0,0-1.453,2.831,13.268,13.268,0,0,0-.267,1.328,18.946,18.946,0,0,0-.789,2.237c1.176.636,2.564,1.628,3.689,1.43a5.88,5.88,0,0,1,5.446,1.655c2.19,2.117,4.15,4.487,6.17,6.728a25.825,25.825,0,0,1,2.421,2.735,6.085,6.085,0,0,1,1.213,3.016c0,1.549-.779,2.642-2.721,1.845A11.335,11.335,0,0,0,262.642,60.764Z" transform="translate(-126.255 -9.263)" fill="#fff"/>
      <path id="Path_52" data-name="Path 52" d="M848.086,389.395c-.489,1.245-.922,2.135-1.181,3.071-.161.586-.323,1.549-.028,1.808a3.043,3.043,0,0,0,2,.392c.489-.032.95-.461,1.429-.71,4.293-2.19,8.047-1.582,11.625,1.577a19.942,19.942,0,0,0,4.1,2.209c2.6,1.356,5.073,2.924,5.995,5.9a5.614,5.614,0,0,0,3.91,4.109c.512.161.881.779,1.319,1.19a5.293,5.293,0,0,1-6.613-2.6c-.922-1.489-2.426-1.406-3.915-1.148-3.164.54-5.441-.595-7.59-3.044a11.668,11.668,0,0,0-5.492-2.956c-1.974-.563-4.261-.392-6.4-.576-2.628-.226-3.177-.968-2.891-3.5.226-1.974.185-3.984.516-5.935.106-.618,1.028-1.093,1.577-1.632Z" transform="translate(-454.952 -208.858)" fill="#fff"/>
      <path id="Path_53" data-name="Path 53" d="M879.155,202.926c-1.545,3.228-3.837,5.534-7.1,6.221-2.661.558-3.044,2.2-3.292,4.372a6.239,6.239,0,0,1-1.153,2.988,5.6,5.6,0,0,0-.922,4.99c.733,3.3.636,3.482-2.615,4.376-2.629.719-5.073,1.66-6.82,3.943a8.944,8.944,0,0,1-2.509,1.5c-.535-2.1-1.577-3.726,1.383-4.736,1.121-.383,1.522-2.555,2.564-3.6a9.545,9.545,0,0,1,3.818-2.522,3.833,3.833,0,0,0,2.951-3.906c.323-7.706,2.255-15.305,1.42-23.094a70.185,70.185,0,0,1-.037-7.138c1.591,1.291,3.182,5.575,3.228,10.339.037,3.352,0,6.968-2.435,9.993A13.073,13.073,0,0,0,879.155,202.926Z" transform="translate(-460.253 -100.423)" fill="#fff"/>
      <path id="Path_54" data-name="Path 54" d="M520.166,46.56l-2.449.715-4.611-4.358-3.127,5.635a4.252,4.252,0,0,1-3.809-3.689,2.956,2.956,0,0,0-1.43-1.918c-2.19-.973-1.416-2.347-.742-3.772.738-1.549,1.789-2.163,3.5-1.337,1.383.659,4.21-.392,5.036-1.725,1.383-2.227,1.715-2.213,3.952-.738a5.727,5.727,0,0,0,2.822.6c1.176.051,1.978.3,1.845,1.674-.111,1.3-.364,2.412-2.066,2.472a21.529,21.529,0,0,0-3.113.563c.618,1.01,1.185,2.052,1.844,3.016S519.258,45.449,520.166,46.56Z" transform="translate(-271.207 -18.527)" fill="#fff"/>
      <path id="Path_55" data-name="Path 55" d="M799.593,387.617c-1.476-.521-2.661-.945-3.855-1.356-.355-.12-.922-.069-1.065-.3a31.255,31.255,0,0,1-2.808-4.339c-.793-1.628-1.282-2.836,1.586-3.6,3.228-.848,5.57-3.551,7.074-6.737a2.933,2.933,0,0,1,1.711-1.443c.318-.078,1.277.885,1.333,1.439C804.168,377.255,803.587,382.978,799.593,387.617Z" transform="translate(-426.376 -199.315)" fill="#fff"/>
      <path id="Path_56" data-name="Path 56" d="M464.985,173.153c-.8-2.329-1.047-4.325.627-6.239a2.371,2.371,0,0,0-.3-2.172c-2.029-2.555-2.306-5.4-1.881-8.453,3.97-.355,5.1.793,5.072,4.74,0,.706.65,1.448,1.079,2.121a27.281,27.281,0,0,1,2.273,3.4c1.808,4.053-.032,6.7-4.455,6.608C466.654,173.139,465.907,173.153,464.985,173.153Z" transform="translate(-249.634 -84.207)" fill="#fff"/>
      <path id="Path_57" data-name="Path 57" d="M631.829,67.59c0,3.385-4.893,6.1-9.13,4.768-1.31,3.5-3.486,6.811-.922,11.4-2.444-1.231-4.261-2.057-5.995-3.039-1.429-.821-1.757-1.992-.752-3.468.729-1.07,1.2-2.306,1.969-3.348s1.651-2.522,2.767-2.9c3.366-1.121,6.29-3.754,10.191-3.163A7.172,7.172,0,0,0,631.829,67.59Z" transform="translate(-331.103 -36.444)" fill="#fff"/>
      <path id="Path_58" data-name="Path 58" d="M428.2,116.009l3.117,4.759c-.659.429-1.476,1.356-2.37,1.448-1.715.166-3.085.249-4.275,1.932-.383.54-2.891-.231-4.316-.724a2.307,2.307,0,0,1-1.125-1.923,50.049,50.049,0,0,1,1.476-5.561C423.621,118.67,425.991,117.812,428.2,116.009Z" transform="translate(-225.903 -62.498)" fill="#fff"/>
      <path id="Path_59" data-name="Path 59" d="M806,423.476c-.922-1.845-1.259-3.016-4.823-1.36-1.586-.53-2.661-.959-3.772-1.245-2.642-.687-5.289-1.356-7.955-1.937-1.923-.42-3.878-.724-5.829-1.01-2.523-.369-2.744-.664-2.186-3.454.95.3,1.872.65,2.827.862a46.329,46.329,0,0,1,4.611.922,34.9,34.9,0,0,1,4.639,2.112c.862.429,1.646,1.383,2.495,1.42,3.362.143,6.852,1.162,9.97-1.245a3.332,3.332,0,0,1,2.605-.12c1.19.346,1.554,1.236.521,2.232S807.079,422.471,806,423.476Z" transform="translate(-420.95 -223.364)" fill="#fff"/>
      <path id="Path_60" data-name="Path 60" d="M949.982,562.061a4.854,4.854,0,0,0,0-1.347c-1.144-3.906-1.084-3.8,2.347-6.064,1.623-1.074,2.864-2.712,4.358-4a10.6,10.6,0,0,1,2.061-1.1c.346.793,1.015,1.6.978,2.375-.12,2.306-1.692,3.689-3.574,4.708-1.7.922-3.33,1.757-3.468,4.15-.037.65-1.383,1.222-2.126,1.845Z" transform="translate(-511.55 -296.154)" fill="#fff"/>
      <path id="Path_61" data-name="Path 61" d="M971.588,525.82a71.651,71.651,0,0,1,5.174,5.995c.406.59-.106,2.071-.576,2.937a22.494,22.494,0,0,1-2.55,3.2l-3.256-4.353c1.5-1.282,2.573-2.739,1.028-4.888C971.062,528.232,971.487,527.176,971.588,525.82Z" transform="translate(-522.901 -283.367)" fill="#fff"/>
      <path id="Path_62" data-name="Path 62" d="M885.426,541.54a13.833,13.833,0,0,0,2.9,1.646c1.651.461,2.047,1.268,1.609,2.854a31.764,31.764,0,0,0-.6,3.841c-2.449.7-3.625.3-4.445-1.656C883.656,545.294,884.02,542.393,885.426,541.54Z" transform="translate(-476.43 -291.838)" fill="#fff"/>
      <path id="Path_63" data-name="Path 63" d="M933.907,421.137c.1,1.72-1.476,2.9-2.629,2.043a50.121,50.121,0,0,1-5.58-4.874c-.429-.461-.221-1.508-.309-2.306a5.9,5.9,0,0,1,2.306.263c1.817,1.1,3.528,2.375,5.234,3.648A5.639,5.639,0,0,1,933.907,421.137Z" transform="translate(-498.658 -224.189)" fill="#fff"/>
      <path id="Path_64" data-name="Path 64" d="M453.58,180.63c.078-2.513-.429-5.031,1.914-6.636a10.963,10.963,0,0,1,2.449-.895,18.571,18.571,0,0,1,.254,2.25,23.64,23.64,0,0,1-.194,3.426c-.2,1.383-.553,2.642-2.495,1.762C455.023,180.321,454.322,180.58,453.58,180.63Z" transform="translate(-244.417 -93.299)" fill="#fff"/>
      <path id="Path_65" data-name="Path 65" d="M731.2,47.65c.484.549.922.982,1.268,1.457.775.987.747,1.734-.572,2.278a10.42,10.42,0,0,0-1.752,1.222c-.346.235-.922.7-1.038.613a2.891,2.891,0,0,1-1-1.356C727.729,50.242,728.582,49.112,731.2,47.65Z" transform="translate(-392.302 -25.699)" fill="#fff"/>
    </g>
  </g>
</svg>
