<?xml version="1.0" encoding="utf-8"?><!-- Uploaded to: SVG Repo, www.svgrepo.com, Generator: SVG Repo Mixer Tools -->
<svg version="1.1" id="Uploaded to svgrepo.com" xmlns="http://www.w3.org/2000/svg" xmlns:xlink="http://www.w3.org/1999/xlink" 
	 width="800px" height="800px" viewBox="0 0 32 32" xml:space="preserve">
<style type="text/css">
	.linesandangles_een{fill:#111918;}
</style>
<path class="linesandangles_een" d="M26,20v-2h-2v-2h-2l-3.131-3.131C18.952,12.425,19,11.968,19,11.5C19,7.358,15.642,4,11.5,4
	S4,7.358,4,11.5S7.358,19,11.5,19c0.468,0,0.925-0.048,1.369-0.131L22,28h6v-8H26z M6,11.5C6,8.467,8.467,6,11.5,6S17,8.467,17,11.5
	S14.533,17,11.5,17S6,14.533,6,11.5z M26,26h-3.172l-7.856-7.856c1.354-0.709,2.463-1.818,3.172-3.172L21.172,18H22v2h2v2h2V26z
	 M11,9.5c0,0.828-0.672,1.5-1.5,1.5S8,10.328,8,9.5S8.672,8,9.5,8S11,8.672,11,9.5z"/>
</svg>