<svg width="52" height="24" viewBox="0 0 52 24" fill="none" xmlns="http://www.w3.org/2000/svg">
<g clip-path="url(#clip0_550_3377)">
<mask id="mask0_550_3377" style="mask-type:luminance" maskUnits="userSpaceOnUse" x="0" y="-1" width="52" height="25">
<path d="M52 -0.00195312H0V23.2123H52V-0.00195312Z" fill="white"/>
</mask>
<g mask="url(#mask0_550_3377)">
<path d="M11.7929 12.8146C11.7407 11.3053 11.0978 9.87507 9.99971 8.8256C8.90163 7.77612 7.43425 7.18945 5.90717 7.18945C4.38008 7.18945 2.91271 7.77612 1.81462 8.8256C0.716532 9.87507 0.0736108 11.3053 0.0214844 12.8146V18.6657H2.18357V12.8485C2.16194 12.349 2.24276 11.8502 2.42117 11.3823C2.59958 10.9144 2.8719 10.4871 3.22171 10.126C3.57152 9.76494 3.99159 9.47764 4.45666 9.28134C4.92173 9.08504 5.42209 8.98382 5.92774 8.98382C6.43339 8.98382 6.9338 9.08504 7.39888 9.28134C7.86395 9.47764 8.28399 9.76494 8.63383 10.126C8.98362 10.4871 9.25597 10.9144 9.43435 11.3823C9.61278 11.8502 9.69361 12.349 9.67197 12.8485V18.6657H11.7929V12.8282V12.8146Z" fill="#F7941D"/>
<path d="M52.001 12.8357V7.01172H49.8592V12.8357C49.8592 13.8186 49.4646 14.7613 48.7617 15.4563C48.0587 16.1514 47.1056 16.5418 46.1118 16.5418C45.1179 16.5418 44.1646 16.1514 43.4618 15.4563C42.759 14.7613 42.3642 13.8186 42.3642 12.8357V7.01172H40.2227V12.8561C40.2227 14.4006 40.8431 15.882 41.9475 16.9742C43.052 18.0664 44.5499 18.68 46.1118 18.68C47.6738 18.68 49.1716 18.0664 50.2762 16.9742C51.3802 15.882 52.001 14.4006 52.001 12.8561V12.8357Z" fill="#414042"/>
<path d="M25.1494 12.4741V-0.00195312H23.0079V8.35384C21.972 7.512 20.6771 7.044 19.3365 7.02691C17.9958 7.00978 16.6892 7.44454 15.6316 8.25964C14.5741 9.07474 13.8286 10.2216 13.518 11.5115C13.2074 12.8014 13.3501 14.1574 13.9226 15.3564C14.495 16.5554 15.4632 17.5259 16.6678 18.1083C17.8723 18.6907 19.2415 18.8501 20.5499 18.5604C21.8583 18.2708 23.028 17.5492 23.8665 16.5145C24.705 15.4798 25.1623 14.1937 25.1632 12.8677C25.1656 12.7363 25.161 12.6049 25.1494 12.4741ZM19.2672 16.5807C18.5351 16.5825 17.8184 16.373 17.205 15.9779C16.5916 15.5829 16.108 15.0194 15.8137 14.3565C15.5193 13.6937 15.427 12.9603 15.5479 12.2463C15.6689 11.5323 15.9979 10.8687 16.4947 10.337C16.9914 9.8052 17.6343 9.42829 18.3444 9.25256C19.0545 9.07678 19.8011 9.10975 20.4925 9.34741C21.184 9.58513 21.7903 10.0171 22.2371 10.5906C22.6839 11.1641 22.9518 11.854 23.0079 12.5758V13.0442C22.9621 13.9957 22.5483 14.8934 21.8521 15.5516C21.1558 16.2098 20.2304 16.5782 19.2672 16.5807Z" fill="#414042"/>
<path d="M38.2803 12.944C38.2831 11.6161 37.8284 10.3268 36.9912 9.28855C36.1541 8.25032 34.9844 7.52496 33.6747 7.23195C32.365 6.93894 30.9934 7.09573 29.7859 7.6765C28.5783 8.25733 27.6068 9.2275 27.0313 10.4273C26.4558 11.627 26.3105 12.9848 26.6196 14.2771C26.9285 15.5694 27.6734 16.7191 28.7313 17.5368C29.7893 18.3546 31.0973 18.7916 32.44 18.7761C33.7827 18.7605 35.08 18.2932 36.1182 17.4511V18.7H38.2666V13.3377C38.2735 13.2359 38.2803 13.0729 38.2803 12.944ZM36.1251 12.7675V13.2359C36.0645 14.2006 35.6265 15.104 34.904 15.7549C34.1815 16.4058 33.2312 16.753 32.2543 16.723C31.2774 16.693 30.3507 16.2881 29.6704 15.5942C28.9901 14.9002 28.6097 13.9716 28.6097 13.0051C28.6097 12.0385 28.9901 11.1099 29.6704 10.416C30.3507 9.72201 31.2774 9.31715 32.2543 9.28716C33.2312 9.25717 34.1815 9.60436 34.904 10.2552C35.6265 10.9062 36.0645 11.8096 36.1251 12.7743V12.7675Z" fill="#414042"/>
<path d="M11.6821 23.2133V21.0955H0V23.2133H11.6821Z" fill="#F7941D"/>
</g>
</g>
<defs>
<clipPath id="clip0_550_3377">
<rect width="52" height="23.2143" fill="white"/>
</clipPath>
</defs>
</svg>
