<svg xmlns="http://www.w3.org/2000/svg" xmlns:xlink="http://www.w3.org/1999/xlink" width="21.68" height="20.476" viewBox="0 0 21.68 20.476">
  <defs>
    <linearGradient id="linear-gradient" x1="0.5" x2="0.5" y2="1" gradientUnits="objectBoundingBox">
      <stop offset="0" stop-color="#f6931d"/>
      <stop offset="1" stop-color="#7b4a0f"/>
    </linearGradient>
  </defs>
  <path id="Icon_awesome-reddit-alien" data-name="Icon awesome-reddit-alien" d="M20.581,10.084a2.433,2.433,0,0,0-1.732.727,11.744,11.744,0,0,0-6.265-1.933l1.266-5.7,4.03.9a1.794,1.794,0,0,0,1.791,1.791,1.814,1.814,0,1,0-1.613-2.623l-4.451-.987a.426.426,0,0,0-.5.324L11.716,8.873a11.891,11.891,0,0,0-6.228,1.956,2.41,2.41,0,1,0-2.8,3.829,5.115,5.115,0,0,0-.119,1.129c0,3.829,4.314,6.932,9.61,6.932,5.319,0,9.633-3.1,9.633-6.932a4.359,4.359,0,0,0-.142-1.147A2.406,2.406,0,0,0,20.581,10.084ZM6.375,14.9a1.8,1.8,0,1,1,1.814,1.791A1.807,1.807,0,0,1,6.375,14.9Zm9.793,4.273c-1.663,1.663-6.356,1.663-8.02,0a.426.426,0,0,1,0-.626.439.439,0,0,1,.6,0c1.27,1.3,5.483,1.325,6.809,0a.439.439,0,0,1,.6,0A.422.422,0,0,1,16.167,19.173ZM16.131,16.7a1.8,1.8,0,1,1,1.814-1.791A1.794,1.794,0,0,1,16.131,16.7Z" transform="translate(-1.319 -2.243)" fill="url(#linear-gradient)"/>
</svg>
