<svg xmlns="http://www.w3.org/2000/svg" width="12.294" height="12.294" viewBox="0 0 12.294 12.294">
  <path id="Union_4" data-name="Union 4" d="M-3944.661-4017.042a1.133,1.133,0,0,1-.334-.806v-3.863h-3.863a1.133,1.133,0,0,1-.806-.335,1.133,1.133,0,0,1-.336-.807,1.143,1.143,0,0,1,1.142-1.142H-3945v-3.863a1.143,1.143,0,0,1,1.142-1.142,1.144,1.144,0,0,1,1.142,1.142V-4024h3.863a1.144,1.144,0,0,1,1.142,1.142,1.143,1.143,0,0,1-1.142,1.142h-3.863v3.863a1.143,1.143,0,0,1-1.142,1.142A1.134,1.134,0,0,1-3944.661-4017.042Z" transform="translate(3950 4029)" fill="#fff"/>
</svg>
